<svg version="1.1" viewBox="0.0 0.0 961.8425196850394 100.0" fill="none" stroke="none" stroke-linecap="square" stroke-miterlimit="10" xmlns:xlink="http://www.w3.org/1999/xlink" xmlns="http://www.w3.org/2000/svg"><clipPath id="p.0"><path d="m0 0l961.8425 0l0 100.0l-961.8425 0l0 -100.0z" clip-rule="nonzero"/></clipPath><g clip-path="url(#p.0)"><path fill="#000000" fill-opacity="0.0" d="m0 0l961.8425 0l0 100.0l-961.8425 0z" fill-rule="evenodd"/><path fill="#ffd966" d="m899.2047 31.577688l0 0c0 -17.438282 13.7276 -31.574802 30.661438 -31.574802l0 0c8.131897 0 15.930786 3.3266215 21.680908 9.248046c5.750122 5.921424 8.98053 13.952599 8.98053 22.326757l0 0c0 17.438284 -13.7276 31.574804 -30.661438 31.574804l0 0c-16.933838 0 -30.661438 -14.13652 -30.661438 -31.574804z" fill-rule="evenodd"/><path fill="#ffd966" d="m0 0l924.28345 0l0 63.149605l-924.28345 0z" fill-rule="evenodd"/></g></svg>